G04 (created by PCBNEW (2013-jul-07)-stable) date Fri 27 Jan 2017 11:51:30 PM EST*
%MOIN*%
G04 Gerber Fmt 3.4, Leading zero omitted, Abs format*
%FSLAX34Y34*%
G01*
G70*
G90*
G04 APERTURE LIST*
%ADD10C,0.00590551*%
%ADD11R,0.0133X0.0133*%
%ADD12O,0.011X0.024*%
%ADD13O,0.0133X0.0133*%
%ADD14O,0.024X0.011*%
%ADD15O,0.0629X0.0629*%
%ADD16R,0.0314X0.0112*%
%ADD17R,0.0112X0.0314*%
%ADD18R,0.124X0.124*%
%ADD19C,0.074*%
%ADD20R,0.045X0.025*%
%ADD21R,0.025X0.045*%
%ADD22R,0.0314X0.0314*%
%ADD23R,0.0236X0.0472*%
%ADD24R,0.0826772X0.0161417*%
%ADD25R,0.0787X0.0984*%
%ADD26R,0.0472X0.0984*%
%ADD27R,0.0984X0.0787*%
G04 APERTURE END LIST*
G54D10*
G54D11*
X16998Y-11599D03*
G54D12*
X16795Y-11575D03*
X16598Y-11575D03*
X16402Y-11575D03*
X16205Y-11575D03*
G54D13*
X16002Y-11602D03*
G54D14*
X15975Y-11805D03*
X15975Y-12002D03*
X15975Y-12198D03*
X15975Y-12395D03*
G54D13*
X16002Y-12598D03*
G54D12*
X16205Y-12625D03*
X16402Y-12625D03*
X16598Y-12625D03*
X16795Y-12625D03*
G54D13*
X16998Y-12598D03*
G54D14*
X17025Y-12395D03*
X17025Y-12198D03*
X17025Y-12002D03*
X17025Y-11805D03*
G54D15*
X16500Y-12100D03*
G54D16*
X13784Y-10588D03*
X13784Y-10392D03*
X13784Y-10195D03*
X13784Y-9998D03*
X13784Y-9802D03*
X13784Y-9605D03*
X13784Y-9408D03*
X13784Y-9212D03*
G54D17*
X13488Y-8916D03*
X13292Y-8916D03*
X13095Y-8916D03*
X12898Y-8916D03*
X12702Y-8916D03*
X12505Y-8916D03*
X12308Y-8916D03*
X12112Y-8916D03*
G54D16*
X11816Y-9212D03*
X11816Y-9408D03*
X11816Y-9605D03*
X11816Y-9802D03*
X11816Y-9998D03*
X11816Y-10195D03*
X11816Y-10392D03*
X11816Y-10588D03*
G54D17*
X12112Y-10884D03*
X12308Y-10884D03*
X12505Y-10884D03*
X12702Y-10884D03*
X12898Y-10884D03*
X13095Y-10884D03*
X13292Y-10884D03*
X13488Y-10884D03*
G54D18*
X12800Y-9900D03*
G54D19*
X8800Y-9100D03*
X9800Y-9100D03*
X8800Y-10100D03*
X9800Y-10100D03*
X8800Y-11100D03*
X9800Y-11100D03*
X15100Y-5300D03*
X16100Y-5300D03*
X9800Y-12300D03*
X8800Y-12300D03*
X8800Y-13500D03*
X9800Y-13500D03*
G54D20*
X16300Y-8500D03*
X16300Y-7900D03*
G54D21*
X17300Y-6700D03*
X16700Y-6700D03*
G54D20*
X20000Y-10700D03*
X20000Y-10100D03*
X16300Y-10700D03*
X16300Y-10100D03*
X16300Y-9600D03*
X16300Y-9000D03*
X20000Y-8500D03*
X20000Y-7900D03*
X20000Y-9600D03*
X20000Y-9000D03*
G54D21*
X18700Y-9800D03*
X19300Y-9800D03*
X18800Y-6000D03*
X18200Y-6000D03*
X18800Y-6700D03*
X18200Y-6700D03*
X17300Y-6000D03*
X16700Y-6000D03*
X15300Y-9400D03*
X14700Y-9400D03*
X19600Y-6700D03*
X20200Y-6700D03*
G54D20*
X20000Y-11800D03*
X20000Y-11200D03*
G54D21*
X15300Y-10200D03*
X14700Y-10200D03*
X15300Y-8000D03*
X14700Y-8000D03*
X14700Y-8600D03*
X15300Y-8600D03*
G54D20*
X12800Y-12800D03*
X12800Y-12200D03*
G54D21*
X19300Y-10500D03*
X18700Y-10500D03*
G54D20*
X13500Y-12800D03*
X13500Y-12200D03*
X12100Y-12800D03*
X12100Y-12200D03*
G54D21*
X16796Y-13267D03*
X16196Y-13267D03*
X16196Y-13937D03*
X16796Y-13937D03*
G54D22*
X14705Y-10700D03*
X15295Y-10700D03*
G54D23*
X14828Y-11384D03*
X15182Y-11384D03*
X15182Y-13864D03*
X14828Y-13864D03*
G54D24*
X17401Y-7551D03*
X17401Y-8019D03*
X17401Y-8519D03*
X17401Y-9019D03*
X18937Y-7519D03*
X18937Y-8019D03*
X18937Y-8519D03*
X18937Y-9019D03*
G54D25*
X9992Y-5242D03*
G54D26*
X8890Y-5242D03*
G54D25*
X9284Y-7958D03*
X12906Y-7958D03*
G54D27*
X14500Y-6305D03*
G54D19*
X13800Y-13600D03*
X12800Y-13600D03*
X11800Y-13600D03*
X18800Y-13600D03*
X19800Y-13600D03*
X19800Y-12500D03*
X18800Y-12500D03*
X17800Y-10600D03*
M02*
